<svg width="20" height="20" viewBox="0 0 20 20" fill="none" xmlns="http://www.w3.org/2000/svg">
    <path d="M15.697 0H4.30303C1.91919 0 0 1.91919 0 4.30303V15.697C0 18.0808 1.91919 20 4.30303 20H15.697C18.0808 20 20 18.0808 20 15.697V4.30303C20 1.93939 18.0606 0 15.697 0ZM4.34343 12.4646H3.79798V11.3939H2.58586V12.4646H2.0404V9.83838H2.58586V10.8889H3.79798V9.83838H4.34343V12.4646ZM7.37374 11.3131C7.37374 12.0606 6.94949 12.4848 6.22222 12.4848C5.49495 12.4848 5.07071 12.0606 5.07071 11.3333V9.83838H5.61616V11.3131C5.61616 11.7576 5.83838 11.9798 6.22222 11.9798C6.60606 11.9798 6.82828 11.7576 6.82828 11.3333V9.83838H7.37374V11.3131ZM9.89899 12.4646L9.65657 11.9192H8.44444L8.42424 11.9596L8.20202 12.4646H7.65656L8.82828 9.83838H9.29293L9.31313 9.85859L10.4848 12.4646H9.89899ZM13.3131 12.4646H12.8687L12.2626 10.7475L11.6566 12.4646H11.2121L10.2828 9.83838H10.8485L11.4343 11.6364L12.0404 9.83838H12.4848L13.0909 11.6364L13.6768 9.83838H14.2424L13.3131 12.4646ZM9.93939 5.19192C7.81818 5.19192 5.9596 4.28283 4.84848 2.44444C4.54545 2.44444 4.30303 2.18182 4.30303 1.87879C4.30303 1.55556 4.56566 1.31313 4.86869 1.31313C5.19192 1.31313 5.43434 1.57576 5.43434 1.87879C5.43434 2.0202 5.37374 2.16162 5.29293 2.26263C6.40404 3.81818 8.08081 4.70707 9.93939 4.70707C11.798 4.70707 13.495 3.79798 14.6061 2.22222C14.5253 2.12121 14.4848 2 14.4848 1.87879C14.4848 1.57576 14.7475 1.31313 15.0505 1.31313C15.3535 1.31313 15.6162 1.55556 15.6162 1.87879C15.6162 2.18182 15.3535 2.44444 15.0505 2.44444H15.0303C13.9394 4.26263 12.0606 5.17172 9.93939 5.19192ZM16.6869 12.4646H14.6667V9.83838H16.6263V10.3232H15.2121V10.8687H16.202V11.3535H15.2121V12H16.6869V12.4646ZM17.8586 12.4646H17.3333V9.83838H17.8586V12.4646Z" fill="#CF102D"/>
    <path d="M8.68687 11.3737L8.64647 11.4343H9.47475L9.43435 11.3737L9.05051 10.5051L8.68687 11.3737Z" fill="#CF102D"/>
</svg>
