<?xml version="1.0" encoding="utf-8"?>
<!-- Generator: Adobe Illustrator 25.3.1, SVG Export Plug-In . SVG Version: 6.00 Build 0)  -->
<svg version="1.1" id="Layer_1" xmlns="http://www.w3.org/2000/svg" xmlns:xlink="http://www.w3.org/1999/xlink" x="0px" y="0px"
	 viewBox="0 0 100 100" style="enable-background:new 0 0 100 100;" xml:space="preserve">
<style type="text/css">
	.st0{fill:#DBDAD9;filter:url(#Adobe_OpacityMaskFilter);}
	.st1{mask:url(#mask0_2106_114_2_);}
	.st2{fill:#F0556A;}
	.st3{fill:#FFFFFF;}
</style>
<defs>
	<filter id="Adobe_OpacityMaskFilter" filterUnits="userSpaceOnUse">
		<feColorMatrix  type="matrix" values="1 0 0 0 0  0 1 0 0 0  0 0 1 0 0  0 0 0 1 0"/>
	</filter>
</defs>
<mask maskUnits="userSpaceOnUse" id="mask0_2106_114_2_">
	<rect x="17.57" y="18.1" class="st0" width="64" height="64"/>
</mask>
<g class="st1">
</g>
<g>
	<path class="st2" d="M86.73,10.83v78.53c0,5.1-4.14,9.24-9.24,9.24H22.06c-5.1,0-9.24-4.14-9.24-9.24V10.83
		c0-5.1,4.14-9.24,9.24-9.24h55.43C82.59,1.59,86.73,5.73,86.73,10.83z"/>
	<path class="st3" d="M56.22,16.76L42.4,30.82c-0.9,0.86-1.41,2.05-1.41,3.29v48.51c0,1.09,1.31,1.64,2.08,0.87l14.05-14.1
		c0.9-0.91,1.41-2.14,1.41-3.42V17.76C58.55,16.54,57.1,15.92,56.22,16.76z"/>
</g>
</svg>
