<svg xmlns="http://www.w3.org/2000/svg" xmlns:xlink="http://www.w3.org/1999/xlink" width="200" height="35.512" viewBox="0 0 200 35.512"><defs><clipPath id="a"><rect width="200" height="35.512" fill="none"/></clipPath><clipPath id="b"><path d="M226.351,737.422v0H190.845v.006L208.6,755.18Z" fill="none" clip-rule="evenodd"/></clipPath><linearGradient id="c" x1="1" y1="0.5" x2="0" y2="0.5" gradientUnits="objectBoundingBox"><stop offset="0" stop-color="#e0262c"/><stop offset="0.5" stop-color="#a00024"/><stop offset="1" stop-color="#6f0028"/></linearGradient></defs><g clip-path="url(#a)"><path d="M190.841,772.927v0h35.509v-.006L208.6,755.169Z" transform="translate(-190.841 -737.419)" fill="#6a062b"/><path d="M190.845,737.419h0v35.507L208.6,755.169Z" transform="translate(-190.841 -737.419)" fill="#a2072e"/><path d="M240.26,754.987l9.879,10.346v.233H245.36l-8.587-9.086v9.086H232.9V745.052h3.868v8.674l7.8-8.674h4.806v.112Z" transform="translate(-190.841 -737.419)" fill="#6a062b"/><path d="M260.4,758.8c0-1.812-1.237-3.764-3.214-3.764S254,756.991,254,758.8s1.211,3.8,3.19,3.8,3.214-1.98,3.214-3.8m3.409,6.762h-3.8v-1.238h-.054a4.659,4.659,0,0,1-3.656,1.68c-3.956,0-6.213-3.6-6.213-7.257,0-3.575,2.284-7.121,6.158-7.121a4.991,4.991,0,0,1,3.765,1.7v-1.265h3.8Z" transform="translate(-190.841 -737.419)" fill="#6a062b"/><path d="M277.113,758.8c0-1.812-1.209-3.764-3.189-3.764s-3.188,1.952-3.188,3.764,1.211,3.8,3.188,3.8,3.189-1.98,3.189-3.8m-5.992-5.5a4.97,4.97,0,0,1,3.737-1.678c3.822,0,6.159,3.576,6.159,7.122,0,3.681-2.254,7.258-6.242,7.258a4.466,4.466,0,0,1-3.6-1.707h-.054v8.466h-3.848v-20.7h3.848Z" transform="translate(-190.841 -737.419)" fill="#6a062b"/><path d="M287.527,765.564h-3.849v-13.5h3.849Zm.358-19.157a2.282,2.282,0,1,1-2.284-2.283A2.277,2.277,0,0,1,287.885,746.407Z" transform="translate(-190.841 -737.419)" fill="#6a062b"/><path d="M295.443,765.565H291.6V755.314h-1.321v-3.246H291.6v-4.56h3.846v4.56h2.366v3.246h-2.366Z" transform="translate(-190.841 -737.419)" fill="#6a062b"/><path d="M308.692,758.8c0-1.812-1.237-3.764-3.215-3.764s-3.19,1.952-3.19,3.764,1.21,3.8,3.19,3.8,3.215-1.98,3.215-3.8m3.41,6.762h-3.8v-1.238h-.053a4.659,4.659,0,0,1-3.655,1.68c-3.958,0-6.213-3.6-6.213-7.257,0-3.575,2.284-7.121,6.158-7.121a4.987,4.987,0,0,1,3.763,1.7v-1.265h3.8Z" transform="translate(-190.841 -737.419)" fill="#6a062b"/><rect width="3.849" height="23.306" transform="translate(124.721 4.84)" fill="#6a062b"/><path d="M355.055,758.8c0-1.812-1.237-3.764-3.214-3.764s-3.188,1.952-3.188,3.764,1.209,3.8,3.188,3.8,3.214-1.98,3.214-3.8m3.409,6.762h-3.793v-1.238h-.054a4.667,4.667,0,0,1-3.656,1.68c-3.96,0-6.213-3.6-6.213-7.257,0-3.575,2.283-7.121,6.157-7.121a4.991,4.991,0,0,1,3.766,1.7v-1.265h3.793Z" transform="translate(-190.841 -737.419)" fill="#6a062b"/><path d="M365.774,753.306h.056a4.027,4.027,0,0,1,3.517-1.678c3.63,0,4.673,2.56,4.673,5.692v8.244h-3.849v-7.147c0-1.621.083-3.707-2.086-3.707-2.282,0-2.311,2.555-2.311,4.178v6.676h-3.848v-13.5h3.848Z" transform="translate(-190.841 -737.419)" fill="#6a062b"/><path d="M381.3,757.017h.054l4.041-4.948h5l-5.693,5.939,6.13,7.555h-5.057l-4.425-5.741H381.3v5.741h-3.851V742.257H381.3Z" transform="translate(-190.841 -737.419)" fill="#6a062b"/><path d="M332.3,762.322h2.528c2.172,0,4.043-.277,4.043-2.97s-2.2-2.8-4.235-2.8H332.3Zm0-8.852h2.173c1.978,0,2.939-.575,2.939-2.723,0-2.113-1.21-2.664-2.914-2.664h-2.2Zm-4.04-8.632h6.707c3.845,0,6.211,1.514,6.211,5.638a4.746,4.746,0,0,1-1.814,4.014c2.447.438,3.543,2.91,3.543,5.194,0,4.067-2.856,5.881-6.622,5.881H328.26Z" transform="translate(-190.841 -737.419)" fill="#6a062b"/><g transform="translate(-190.841 -737.419)"><g clip-path="url(#b)"><rect width="35.506" height="17.76" transform="translate(190.845 737.419)" fill="url(#c)"/></g></g></g></svg>