<svg width="120" height="120" viewBox="0 0 120 120" fill="none" xmlns="http://www.w3.org/2000/svg">
<path d="M8.8889 4.44444H4.44446V8.88889H8.8889V4.44444Z" fill="white"/>
<path d="M13.3333 4.44444H8.88889V8.88889H13.3333V4.44444Z" fill="white"/>
<path d="M17.7778 4.44444H13.3333V8.88889H17.7778V4.44444Z" fill="white"/>
<path d="M22.2222 4.44444H17.7778V8.88889H22.2222V4.44444Z" fill="white"/>
<path d="M26.6667 4.44444H22.2222V8.88889H26.6667V4.44444Z" fill="white"/>
<path d="M31.1111 4.44444H26.6667V8.88889H31.1111V4.44444Z" fill="white"/>
<path d="M35.5556 4.44444H31.1111V8.88889H35.5556V4.44444Z" fill="white"/>
<path d="M48.8889 4.44444H44.4445V8.88889H48.8889V4.44444Z" fill="white"/>
<path d="M53.3333 4.44444H48.8889V8.88889H53.3333V4.44444Z" fill="white"/>
<path d="M57.7778 4.44444H53.3333V8.88889H57.7778V4.44444Z" fill="white"/>
<path d="M71.1111 4.44444H66.6667V8.88889H71.1111V4.44444Z" fill="white"/>
<path d="M80 4.44444H75.5555V8.88889H80V4.44444Z" fill="white"/>
<path d="M88.8889 4.44444H84.4445V8.88889H88.8889V4.44444Z" fill="white"/>
<path d="M93.3334 4.44444H88.8889V8.88889H93.3334V4.44444Z" fill="white"/>
<path d="M97.7778 4.44444H93.3333V8.88889H97.7778V4.44444Z" fill="white"/>
<path d="M102.222 4.44444H97.7778V8.88889H102.222V4.44444Z" fill="white"/>
<path d="M106.667 4.44444H102.222V8.88889H106.667V4.44444Z" fill="white"/>
<path d="M111.111 4.44444H106.667V8.88889H111.111V4.44444Z" fill="white"/>
<path d="M115.556 4.44444H111.111V8.88889H115.556V4.44444Z" fill="white"/>
<path d="M8.8889 8.88889H4.44446V13.3333H8.8889V8.88889Z" fill="white"/>
<path d="M35.5556 8.88889H31.1111V13.3333H35.5556V8.88889Z" fill="white"/>
<path d="M57.7778 8.88889H53.3333V13.3333H57.7778V8.88889Z" fill="white"/>
<path d="M62.2222 8.88889H57.7778V13.3333H62.2222V8.88889Z" fill="white"/>
<path d="M66.6667 8.88889H62.2222V13.3333H66.6667V8.88889Z" fill="white"/>
<path d="M71.1111 8.88889H66.6667V13.3333H71.1111V8.88889Z" fill="white"/>
<path d="M80 8.88889H75.5555V13.3333H80V8.88889Z" fill="white"/>
<path d="M88.8889 8.88889H84.4445V13.3333H88.8889V8.88889Z" fill="white"/>
<path d="M115.556 8.88889H111.111V13.3333H115.556V8.88889Z" fill="white"/>
<path d="M8.8889 13.3333H4.44446V17.7778H8.8889V13.3333Z" fill="white"/>
<path d="M17.7778 13.3333H13.3333V17.7778H17.7778V13.3333Z" fill="white"/>
<path d="M22.2222 13.3333H17.7778V17.7778H22.2222V13.3333Z" fill="white"/>
<path d="M26.6667 13.3333H22.2222V17.7778H26.6667V13.3333Z" fill="white"/>
<path d="M35.5556 13.3333H31.1111V17.7778H35.5556V13.3333Z" fill="white"/>
<path d="M48.8889 13.3333H44.4445V17.7778H48.8889V13.3333Z" fill="white"/>
<path d="M53.3333 13.3333H48.8889V17.7778H53.3333V13.3333Z" fill="white"/>
<path d="M57.7778 13.3333H53.3333V17.7778H57.7778V13.3333Z" fill="white"/>
<path d="M71.1111 13.3333H66.6667V17.7778H71.1111V13.3333Z" fill="white"/>
<path d="M80 13.3333H75.5555V17.7778H80V13.3333Z" fill="white"/>
<path d="M88.8889 13.3333H84.4445V17.7778H88.8889V13.3333Z" fill="white"/>
<path d="M97.7778 13.3333H93.3333V17.7778H97.7778V13.3333Z" fill="white"/>
<path d="M102.222 13.3333H97.7778V17.7778H102.222V13.3333Z" fill="white"/>
<path d="M106.667 13.3333H102.222V17.7778H106.667V13.3333Z" fill="white"/>
<path d="M115.556 13.3333H111.111V17.7778H115.556V13.3333Z" fill="white"/>
<path d="M8.8889 17.7778H4.44446V22.2222H8.8889V17.7778Z" fill="white"/>
<path d="M17.7778 17.7778H13.3333V22.2222H17.7778V17.7778Z" fill="white"/>
<path d="M22.2222 17.7778H17.7778V22.2222H22.2222V17.7778Z" fill="white"/>
<path d="M26.6667 17.7778H22.2222V22.2222H26.6667V17.7778Z" fill="white"/>
<path d="M35.5556 17.7778H31.1111V22.2222H35.5556V17.7778Z" fill="white"/>
<path d="M44.4444 17.7778H40V22.2222H44.4444V17.7778Z" fill="white"/>
<path d="M53.3333 17.7778H48.8889V22.2222H53.3333V17.7778Z" fill="white"/>
<path d="M57.7778 17.7778H53.3333V22.2222H57.7778V17.7778Z" fill="white"/>
<path d="M66.6667 17.7778H62.2222V22.2222H66.6667V17.7778Z" fill="white"/>
<path d="M75.5556 17.7778H71.1111V22.2222H75.5556V17.7778Z" fill="white"/>
<path d="M80 17.7778H75.5555V22.2222H80V17.7778Z" fill="white"/>
<path d="M88.8889 17.7778H84.4445V22.2222H88.8889V17.7778Z" fill="white"/>
<path d="M97.7778 17.7778H93.3333V22.2222H97.7778V17.7778Z" fill="white"/>
<path d="M102.222 17.7778H97.7778V22.2222H102.222V17.7778Z" fill="white"/>
<path d="M106.667 17.7778H102.222V22.2222H106.667V17.7778Z" fill="white"/>
<path d="M115.556 17.7778H111.111V22.2222H115.556V17.7778Z" fill="white"/>
<path d="M8.8889 22.2222H4.44446V26.6667H8.8889V22.2222Z" fill="white"/>
<path d="M17.7778 22.2222H13.3333V26.6667H17.7778V22.2222Z" fill="white"/>
<path d="M22.2222 22.2222H17.7778V26.6667H22.2222V22.2222Z" fill="white"/>
<path d="M26.6667 22.2222H22.2222V26.6667H26.6667V22.2222Z" fill="white"/>
<path d="M35.5556 22.2222H31.1111V26.6667H35.5556V22.2222Z" fill="white"/>
<path d="M44.4444 22.2222H40V26.6667H44.4444V22.2222Z" fill="white"/>
<path d="M53.3333 22.2222H48.8889V26.6667H53.3333V22.2222Z" fill="white"/>
<path d="M62.2222 22.2222H57.7778V26.6667H62.2222V22.2222Z" fill="white"/>
<path d="M71.1111 22.2222H66.6667V26.6667H71.1111V22.2222Z" fill="white"/>
<path d="M80 22.2222H75.5555V26.6667H80V22.2222Z" fill="white"/>
<path d="M88.8889 22.2222H84.4445V26.6667H88.8889V22.2222Z" fill="white"/>
<path d="M97.7778 22.2222H93.3333V26.6667H97.7778V22.2222Z" fill="white"/>
<path d="M102.222 22.2222H97.7778V26.6667H102.222V22.2222Z" fill="white"/>
<path d="M106.667 22.2222H102.222V26.6667H106.667V22.2222Z" fill="white"/>
<path d="M115.556 22.2222H111.111V26.6667H115.556V22.2222Z" fill="white"/>
<path d="M8.8889 26.6667H4.44446V31.1111H8.8889V26.6667Z" fill="white"/>
<path d="M35.5556 26.6667H31.1111V31.1111H35.5556V26.6667Z" fill="white"/>
<path d="M48.8889 26.6667H44.4445V31.1111H48.8889V26.6667Z" fill="white"/>
<path d="M53.3333 26.6667H48.8889V31.1111H53.3333V26.6667Z" fill="white"/>
<path d="M71.1111 26.6667H66.6667V31.1111H71.1111V26.6667Z" fill="white"/>
<path d="M88.8889 26.6667H84.4445V31.1111H88.8889V26.6667Z" fill="white"/>
<path d="M115.556 26.6667H111.111V31.1111H115.556V26.6667Z" fill="white"/>
<path d="M8.8889 31.1111H4.44446V35.5556H8.8889V31.1111Z" fill="white"/>
<path d="M13.3333 31.1111H8.88889V35.5556H13.3333V31.1111Z" fill="white"/>
<path d="M17.7778 31.1111H13.3333V35.5556H17.7778V31.1111Z" fill="white"/>
<path d="M22.2222 31.1111H17.7778V35.5556H22.2222V31.1111Z" fill="white"/>
<path d="M26.6667 31.1111H22.2222V35.5556H26.6667V31.1111Z" fill="white"/>
<path d="M31.1111 31.1111H26.6667V35.5556H31.1111V31.1111Z" fill="white"/>
<path d="M35.5556 31.1111H31.1111V35.5556H35.5556V31.1111Z" fill="white"/>
<path d="M44.4444 31.1111H40V35.5556H44.4444V31.1111Z" fill="white"/>
<path d="M53.3333 31.1111H48.8889V35.5556H53.3333V31.1111Z" fill="white"/>
<path d="M62.2222 31.1111H57.7778V35.5556H62.2222V31.1111Z" fill="white"/>
<path d="M71.1111 31.1111H66.6667V35.5556H71.1111V31.1111Z" fill="white"/>
<path d="M80 31.1111H75.5555V35.5556H80V31.1111Z" fill="white"/>
<path d="M88.8889 31.1111H84.4445V35.5556H88.8889V31.1111Z" fill="white"/>
<path d="M93.3334 31.1111H88.8889V35.5556H93.3334V31.1111Z" fill="white"/>
<path d="M97.7778 31.1111H93.3333V35.5556H97.7778V31.1111Z" fill="white"/>
<path d="M102.222 31.1111H97.7778V35.5556H102.222V31.1111Z" fill="white"/>
<path d="M106.667 31.1111H102.222V35.5556H106.667V31.1111Z" fill="white"/>
<path d="M111.111 31.1111H106.667V35.5556H111.111V31.1111Z" fill="white"/>
<path d="M115.556 31.1111H111.111V35.5556H115.556V31.1111Z" fill="white"/>
<path d="M48.8889 35.5556H44.4445V40H48.8889V35.5556Z" fill="white"/>
<path d="M62.2222 35.5556H57.7778V40H62.2222V35.5556Z" fill="white"/>
<path d="M80 35.5556H75.5555V40H80V35.5556Z" fill="white"/>
<path d="M8.8889 40H4.44446V44.4444H8.8889V40Z" fill="white"/>
<path d="M13.3333 40H8.88889V44.4444H13.3333V40Z" fill="white"/>
<path d="M31.1111 40H26.6667V44.4444H31.1111V40Z" fill="white"/>
<path d="M35.5556 40H31.1111V44.4444H35.5556V40Z" fill="white"/>
<path d="M40 40H35.5555V44.4444H40V40Z" fill="white"/>
<path d="M48.8889 40H44.4445V44.4444H48.8889V40Z" fill="white"/>
<path d="M53.3333 40H48.8889V44.4444H53.3333V40Z" fill="white"/>
<path d="M62.2222 40H57.7778V44.4444H62.2222V40Z" fill="white"/>
<path d="M66.6667 40H62.2222V44.4444H66.6667V40Z" fill="white"/>
<path d="M71.1111 40H66.6667V44.4444H71.1111V40Z" fill="white"/>
<path d="M75.5556 40H71.1111V44.4444H75.5556V40Z" fill="white"/>
<path d="M80 40H75.5555V44.4444H80V40Z" fill="white"/>
<path d="M97.7778 40H93.3333V44.4444H97.7778V40Z" fill="white"/>
<path d="M102.222 40H97.7778V44.4444H102.222V40Z" fill="white"/>
<path d="M13.3333 44.4444H8.88889V48.8889H13.3333V44.4444Z" fill="white"/>
<path d="M17.7778 44.4444H13.3333V48.8889H17.7778V44.4444Z" fill="white"/>
<path d="M22.2222 44.4444H17.7778V48.8889H22.2222V44.4444Z" fill="white"/>
<path d="M31.1111 44.4444H26.6667V48.8889H31.1111V44.4444Z" fill="white"/>
<path d="M44.4444 44.4444H40V48.8889H44.4444V44.4444Z" fill="white"/>
<path d="M53.3333 44.4444H48.8889V48.8889H53.3333V44.4444Z" fill="white"/>
<path d="M75.5556 44.4444H71.1111V48.8889H75.5556V44.4444Z" fill="white"/>
<path d="M93.3334 44.4444H88.8889V48.8889H93.3334V44.4444Z" fill="white"/>
<path d="M97.7778 44.4444H93.3333V48.8889H97.7778V44.4444Z" fill="white"/>
<path d="M102.222 44.4444H97.7778V48.8889H102.222V44.4444Z" fill="white"/>
<path d="M106.667 44.4444H102.222V48.8889H106.667V44.4444Z" fill="white"/>
<path d="M111.111 44.4444H106.667V48.8889H111.111V44.4444Z" fill="white"/>
<path d="M8.8889 48.8889H4.44446V53.3333H8.8889V48.8889Z" fill="white"/>
<path d="M13.3333 48.8889H8.88889V53.3333H13.3333V48.8889Z" fill="white"/>
<path d="M17.7778 48.8889H13.3333V53.3333H17.7778V48.8889Z" fill="white"/>
<path d="M22.2222 48.8889H17.7778V53.3333H22.2222V48.8889Z" fill="white"/>
<path d="M26.6667 48.8889H22.2222V53.3333H26.6667V48.8889Z" fill="white"/>
<path d="M31.1111 48.8889H26.6667V53.3333H31.1111V48.8889Z" fill="white"/>
<path d="M35.5556 48.8889H31.1111V53.3333H35.5556V48.8889Z" fill="white"/>
<path d="M48.8889 48.8889H44.4445V53.3333H48.8889V48.8889Z" fill="white"/>
<path d="M57.7778 48.8889H53.3333V53.3333H57.7778V48.8889Z" fill="white"/>
<path d="M62.2222 48.8889H57.7778V53.3333H62.2222V48.8889Z" fill="white"/>
<path d="M75.5556 48.8889H71.1111V53.3333H75.5556V48.8889Z" fill="white"/>
<path d="M84.4444 48.8889H80V53.3333H84.4444V48.8889Z" fill="white"/>
<path d="M88.8889 48.8889H84.4445V53.3333H88.8889V48.8889Z" fill="white"/>
<path d="M97.7778 48.8889H93.3333V53.3333H97.7778V48.8889Z" fill="white"/>
<path d="M102.222 48.8889H97.7778V53.3333H102.222V48.8889Z" fill="white"/>
<path d="M111.111 48.8889H106.667V53.3333H111.111V48.8889Z" fill="white"/>
<path d="M115.556 48.8889H111.111V53.3333H115.556V48.8889Z" fill="white"/>
<path d="M8.8889 53.3333H4.44446V57.7778H8.8889V53.3333Z" fill="white"/>
<path d="M22.2222 53.3333H17.7778V57.7778H22.2222V53.3333Z" fill="white"/>
<path d="M31.1111 53.3333H26.6667V57.7778H31.1111V53.3333Z" fill="white"/>
<path d="M40 53.3333H35.5555V57.7778H40V53.3333Z" fill="white"/>
<path d="M44.4444 53.3333H40V57.7778H44.4444V53.3333Z" fill="white"/>
<path d="M53.3333 53.3333H48.8889V57.7778H53.3333V53.3333Z" fill="white"/>
<path d="M57.7778 53.3333H53.3333V57.7778H57.7778V53.3333Z" fill="white"/>
<path d="M71.1111 53.3333H66.6667V57.7778H71.1111V53.3333Z" fill="white"/>
<path d="M75.5556 53.3333H71.1111V57.7778H75.5556V53.3333Z" fill="white"/>
<path d="M80 53.3333H75.5555V57.7778H80V53.3333Z" fill="white"/>
<path d="M84.4444 53.3333H80V57.7778H84.4444V53.3333Z" fill="white"/>
<path d="M88.8889 53.3333H84.4445V57.7778H88.8889V53.3333Z" fill="white"/>
<path d="M93.3334 53.3333H88.8889V57.7778H93.3334V53.3333Z" fill="white"/>
<path d="M97.7778 53.3333H93.3333V57.7778H97.7778V53.3333Z" fill="white"/>
<path d="M102.222 53.3333H97.7778V57.7778H102.222V53.3333Z" fill="white"/>
<path d="M115.556 53.3333H111.111V57.7778H115.556V53.3333Z" fill="white"/>
<path d="M8.8889 57.7778H4.44446V62.2222H8.8889V57.7778Z" fill="white"/>
<path d="M17.7778 57.7778H13.3333V62.2222H17.7778V57.7778Z" fill="white"/>
<path d="M35.5556 57.7778H31.1111V62.2222H35.5556V57.7778Z" fill="white"/>
<path d="M40 57.7778H35.5555V62.2222H40V57.7778Z" fill="white"/>
<path d="M44.4444 57.7778H40V62.2222H44.4444V57.7778Z" fill="white"/>
<path d="M48.8889 57.7778H44.4445V62.2222H48.8889V57.7778Z" fill="white"/>
<path d="M53.3333 57.7778H48.8889V62.2222H53.3333V57.7778Z" fill="white"/>
<path d="M80 57.7778H75.5555V62.2222H80V57.7778Z" fill="white"/>
<path d="M88.8889 57.7778H84.4445V62.2222H88.8889V57.7778Z" fill="white"/>
<path d="M93.3334 57.7778H88.8889V62.2222H93.3334V57.7778Z" fill="white"/>
<path d="M115.556 57.7778H111.111V62.2222H115.556V57.7778Z" fill="white"/>
<path d="M8.8889 62.2222H4.44446V66.6667H8.8889V62.2222Z" fill="white"/>
<path d="M13.3333 62.2222H8.88889V66.6667H13.3333V62.2222Z" fill="white"/>
<path d="M17.7778 62.2222H13.3333V66.6667H17.7778V62.2222Z" fill="white"/>
<path d="M26.6667 62.2222H22.2222V66.6667H26.6667V62.2222Z" fill="white"/>
<path d="M31.1111 62.2222H26.6667V66.6667H31.1111V62.2222Z" fill="white"/>
<path d="M44.4444 62.2222H40V66.6667H44.4444V62.2222Z" fill="white"/>
<path d="M48.8889 62.2222H44.4445V66.6667H48.8889V62.2222Z" fill="white"/>
<path d="M53.3333 62.2222H48.8889V66.6667H53.3333V62.2222Z" fill="white"/>
<path d="M62.2222 62.2222H57.7778V66.6667H62.2222V62.2222Z" fill="white"/>
<path d="M71.1111 62.2222H66.6667V66.6667H71.1111V62.2222Z" fill="white"/>
<path d="M75.5556 62.2222H71.1111V66.6667H75.5556V62.2222Z" fill="white"/>
<path d="M93.3334 62.2222H88.8889V66.6667H93.3334V62.2222Z" fill="white"/>
<path d="M111.111 62.2222H106.667V66.6667H111.111V62.2222Z" fill="white"/>
<path d="M8.8889 66.6667H4.44446V71.1111H8.8889V66.6667Z" fill="white"/>
<path d="M17.7778 66.6667H13.3333V71.1111H17.7778V66.6667Z" fill="white"/>
<path d="M22.2222 66.6667H17.7778V71.1111H22.2222V66.6667Z" fill="white"/>
<path d="M31.1111 66.6667H26.6667V71.1111H31.1111V66.6667Z" fill="white"/>
<path d="M35.5556 66.6667H31.1111V71.1111H35.5556V66.6667Z" fill="white"/>
<path d="M66.6667 66.6667H62.2222V71.1111H66.6667V66.6667Z" fill="white"/>
<path d="M71.1111 66.6667H66.6667V71.1111H71.1111V66.6667Z" fill="white"/>
<path d="M75.5556 66.6667H71.1111V71.1111H75.5556V66.6667Z" fill="white"/>
<path d="M80 66.6667H75.5555V71.1111H80V66.6667Z" fill="white"/>
<path d="M84.4444 66.6667H80V71.1111H84.4444V66.6667Z" fill="white"/>
<path d="M93.3334 66.6667H88.8889V71.1111H93.3334V66.6667Z" fill="white"/>
<path d="M97.7778 66.6667H93.3333V71.1111H97.7778V66.6667Z" fill="white"/>
<path d="M102.222 66.6667H97.7778V71.1111H102.222V66.6667Z" fill="white"/>
<path d="M111.111 66.6667H106.667V71.1111H111.111V66.6667Z" fill="white"/>
<path d="M115.556 66.6667H111.111V71.1111H115.556V66.6667Z" fill="white"/>
<path d="M8.8889 71.1111H4.44446V75.5556H8.8889V71.1111Z" fill="white"/>
<path d="M26.6667 71.1111H22.2222V75.5556H26.6667V71.1111Z" fill="white"/>
<path d="M31.1111 71.1111H26.6667V75.5556H31.1111V71.1111Z" fill="white"/>
<path d="M40 71.1111H35.5555V75.5556H40V71.1111Z" fill="white"/>
<path d="M48.8889 71.1111H44.4445V75.5556H48.8889V71.1111Z" fill="white"/>
<path d="M53.3333 71.1111H48.8889V75.5556H53.3333V71.1111Z" fill="white"/>
<path d="M62.2222 71.1111H57.7778V75.5556H62.2222V71.1111Z" fill="white"/>
<path d="M75.5556 71.1111H71.1111V75.5556H75.5556V71.1111Z" fill="white"/>
<path d="M80 71.1111H75.5555V75.5556H80V71.1111Z" fill="white"/>
<path d="M88.8889 71.1111H84.4445V75.5556H88.8889V71.1111Z" fill="white"/>
<path d="M93.3334 71.1111H88.8889V75.5556H93.3334V71.1111Z" fill="white"/>
<path d="M106.667 71.1111H102.222V75.5556H106.667V71.1111Z" fill="white"/>
<path d="M115.556 71.1111H111.111V75.5556H115.556V71.1111Z" fill="white"/>
<path d="M8.8889 75.5556H4.44446V80H8.8889V75.5556Z" fill="white"/>
<path d="M22.2222 75.5556H17.7778V80H22.2222V75.5556Z" fill="white"/>
<path d="M26.6667 75.5556H22.2222V80H26.6667V75.5556Z" fill="white"/>
<path d="M35.5556 75.5556H31.1111V80H35.5556V75.5556Z" fill="white"/>
<path d="M53.3333 75.5556H48.8889V80H53.3333V75.5556Z" fill="white"/>
<path d="M62.2222 75.5556H57.7778V80H62.2222V75.5556Z" fill="white"/>
<path d="M66.6667 75.5556H62.2222V80H66.6667V75.5556Z" fill="white"/>
<path d="M71.1111 75.5556H66.6667V80H71.1111V75.5556Z" fill="white"/>
<path d="M80 75.5556H75.5555V80H80V75.5556Z" fill="white"/>
<path d="M84.4444 75.5556H80V80H84.4444V75.5556Z" fill="white"/>
<path d="M88.8889 75.5556H84.4445V80H88.8889V75.5556Z" fill="white"/>
<path d="M93.3334 75.5556H88.8889V80H93.3334V75.5556Z" fill="white"/>
<path d="M97.7778 75.5556H93.3333V80H97.7778V75.5556Z" fill="white"/>
<path d="M106.667 75.5556H102.222V80H106.667V75.5556Z" fill="white"/>
<path d="M44.4444 80H40V84.4444H44.4444V80Z" fill="white"/>
<path d="M48.8889 80H44.4445V84.4444H48.8889V80Z" fill="white"/>
<path d="M80 80H75.5555V84.4444H80V80Z" fill="white"/>
<path d="M97.7778 80H93.3333V84.4444H97.7778V80Z" fill="white"/>
<path d="M106.667 80H102.222V84.4444H106.667V80Z" fill="white"/>
<path d="M8.8889 84.4444H4.44446V88.8889H8.8889V84.4444Z" fill="white"/>
<path d="M13.3333 84.4444H8.88889V88.8889H13.3333V84.4444Z" fill="white"/>
<path d="M17.7778 84.4444H13.3333V88.8889H17.7778V84.4444Z" fill="white"/>
<path d="M22.2222 84.4444H17.7778V88.8889H22.2222V84.4444Z" fill="white"/>
<path d="M26.6667 84.4444H22.2222V88.8889H26.6667V84.4444Z" fill="white"/>
<path d="M31.1111 84.4444H26.6667V88.8889H31.1111V84.4444Z" fill="white"/>
<path d="M35.5556 84.4444H31.1111V88.8889H35.5556V84.4444Z" fill="white"/>
<path d="M44.4444 84.4444H40V88.8889H44.4444V84.4444Z" fill="white"/>
<path d="M53.3333 84.4444H48.8889V88.8889H53.3333V84.4444Z" fill="white"/>
<path d="M62.2222 84.4444H57.7778V88.8889H62.2222V84.4444Z" fill="white"/>
<path d="M71.1111 84.4444H66.6667V88.8889H71.1111V84.4444Z" fill="white"/>
<path d="M80 84.4444H75.5555V88.8889H80V84.4444Z" fill="white"/>
<path d="M88.8889 84.4444H84.4445V88.8889H88.8889V84.4444Z" fill="white"/>
<path d="M97.7778 84.4444H93.3333V88.8889H97.7778V84.4444Z" fill="white"/>
<path d="M102.222 84.4444H97.7778V88.8889H102.222V84.4444Z" fill="white"/>
<path d="M115.556 84.4444H111.111V88.8889H115.556V84.4444Z" fill="white"/>
<path d="M8.8889 88.8889H4.44446V93.3333H8.8889V88.8889Z" fill="white"/>
<path d="M35.5556 88.8889H31.1111V93.3333H35.5556V88.8889Z" fill="white"/>
<path d="M44.4444 88.8889H40V93.3333H44.4444V88.8889Z" fill="white"/>
<path d="M57.7778 88.8889H53.3333V93.3333H57.7778V88.8889Z" fill="white"/>
<path d="M75.5556 88.8889H71.1111V93.3333H75.5556V88.8889Z" fill="white"/>
<path d="M80 88.8889H75.5555V93.3333H80V88.8889Z" fill="white"/>
<path d="M97.7778 88.8889H93.3333V93.3333H97.7778V88.8889Z" fill="white"/>
<path d="M115.556 88.8889H111.111V93.3333H115.556V88.8889Z" fill="white"/>
<path d="M8.8889 93.3333H4.44446V97.7778H8.8889V93.3333Z" fill="white"/>
<path d="M17.7778 93.3333H13.3333V97.7778H17.7778V93.3333Z" fill="white"/>
<path d="M22.2222 93.3333H17.7778V97.7778H22.2222V93.3333Z" fill="white"/>
<path d="M26.6667 93.3333H22.2222V97.7778H26.6667V93.3333Z" fill="white"/>
<path d="M35.5556 93.3333H31.1111V97.7778H35.5556V93.3333Z" fill="white"/>
<path d="M57.7778 93.3333H53.3333V97.7778H57.7778V93.3333Z" fill="white"/>
<path d="M62.2222 93.3333H57.7778V97.7778H62.2222V93.3333Z" fill="white"/>
<path d="M66.6667 93.3333H62.2222V97.7778H66.6667V93.3333Z" fill="white"/>
<path d="M71.1111 93.3333H66.6667V97.7778H71.1111V93.3333Z" fill="white"/>
<path d="M75.5556 93.3333H71.1111V97.7778H75.5556V93.3333Z" fill="white"/>
<path d="M80 93.3333H75.5555V97.7778H80V93.3333Z" fill="white"/>
<path d="M84.4444 93.3333H80V97.7778H84.4444V93.3333Z" fill="white"/>
<path d="M88.8889 93.3333H84.4445V97.7778H88.8889V93.3333Z" fill="white"/>
<path d="M93.3334 93.3333H88.8889V97.7778H93.3334V93.3333Z" fill="white"/>
<path d="M97.7778 93.3333H93.3333V97.7778H97.7778V93.3333Z" fill="white"/>
<path d="M102.222 93.3333H97.7778V97.7778H102.222V93.3333Z" fill="white"/>
<path d="M106.667 93.3333H102.222V97.7778H106.667V93.3333Z" fill="white"/>
<path d="M8.8889 97.7778H4.44446V102.222H8.8889V97.7778Z" fill="white"/>
<path d="M17.7778 97.7778H13.3333V102.222H17.7778V97.7778Z" fill="white"/>
<path d="M22.2222 97.7778H17.7778V102.222H22.2222V97.7778Z" fill="white"/>
<path d="M26.6667 97.7778H22.2222V102.222H26.6667V97.7778Z" fill="white"/>
<path d="M35.5556 97.7778H31.1111V102.222H35.5556V97.7778Z" fill="white"/>
<path d="M62.2222 97.7778H57.7778V102.222H62.2222V97.7778Z" fill="white"/>
<path d="M66.6667 97.7778H62.2222V102.222H66.6667V97.7778Z" fill="white"/>
<path d="M71.1111 97.7778H66.6667V102.222H71.1111V97.7778Z" fill="white"/>
<path d="M84.4444 97.7778H80V102.222H84.4444V97.7778Z" fill="white"/>
<path d="M88.8889 97.7778H84.4445V102.222H88.8889V97.7778Z" fill="white"/>
<path d="M102.222 97.7778H97.7778V102.222H102.222V97.7778Z" fill="white"/>
<path d="M111.111 97.7778H106.667V102.222H111.111V97.7778Z" fill="white"/>
<path d="M115.556 97.7778H111.111V102.222H115.556V97.7778Z" fill="white"/>
<path d="M8.8889 102.222H4.44446V106.667H8.8889V102.222Z" fill="white"/>
<path d="M17.7778 102.222H13.3333V106.667H17.7778V102.222Z" fill="white"/>
<path d="M22.2222 102.222H17.7778V106.667H22.2222V102.222Z" fill="white"/>
<path d="M26.6667 102.222H22.2222V106.667H26.6667V102.222Z" fill="white"/>
<path d="M35.5556 102.222H31.1111V106.667H35.5556V102.222Z" fill="white"/>
<path d="M48.8889 102.222H44.4445V106.667H48.8889V102.222Z" fill="white"/>
<path d="M53.3333 102.222H48.8889V106.667H53.3333V102.222Z" fill="white"/>
<path d="M66.6667 102.222H62.2222V106.667H66.6667V102.222Z" fill="white"/>
<path d="M80 102.222H75.5555V106.667H80V102.222Z" fill="white"/>
<path d="M93.3334 102.222H88.8889V106.667H93.3334V102.222Z" fill="white"/>
<path d="M106.667 102.222H102.222V106.667H106.667V102.222Z" fill="white"/>
<path d="M115.556 102.222H111.111V106.667H115.556V102.222Z" fill="white"/>
<path d="M8.8889 106.667H4.44446V111.111H8.8889V106.667Z" fill="white"/>
<path d="M35.5556 106.667H31.1111V111.111H35.5556V106.667Z" fill="white"/>
<path d="M44.4444 106.667H40V111.111H44.4444V106.667Z" fill="white"/>
<path d="M48.8889 106.667H44.4445V111.111H48.8889V106.667Z" fill="white"/>
<path d="M57.7778 106.667H53.3333V111.111H57.7778V106.667Z" fill="white"/>
<path d="M71.1111 106.667H66.6667V111.111H71.1111V106.667Z" fill="white"/>
<path d="M80 106.667H75.5555V111.111H80V106.667Z" fill="white"/>
<path d="M93.3334 106.667H88.8889V111.111H93.3334V106.667Z" fill="white"/>
<path d="M97.7778 106.667H93.3333V111.111H97.7778V106.667Z" fill="white"/>
<path d="M115.556 106.667H111.111V111.111H115.556V106.667Z" fill="white"/>
<path d="M8.8889 111.111H4.44446V115.556H8.8889V111.111Z" fill="white"/>
<path d="M13.3333 111.111H8.88889V115.556H13.3333V111.111Z" fill="white"/>
<path d="M17.7778 111.111H13.3333V115.556H17.7778V111.111Z" fill="white"/>
<path d="M22.2222 111.111H17.7778V115.556H22.2222V111.111Z" fill="white"/>
<path d="M26.6667 111.111H22.2222V115.556H26.6667V111.111Z" fill="white"/>
<path d="M31.1111 111.111H26.6667V115.556H31.1111V111.111Z" fill="white"/>
<path d="M35.5556 111.111H31.1111V115.556H35.5556V111.111Z" fill="white"/>
<path d="M44.4444 111.111H40V115.556H44.4444V111.111Z" fill="white"/>
<path d="M53.3333 111.111H48.8889V115.556H53.3333V111.111Z" fill="white"/>
<path d="M57.7778 111.111H53.3333V115.556H57.7778V111.111Z" fill="white"/>
<path d="M80 111.111H75.5555V115.556H80V111.111Z" fill="white"/>
<path d="M88.8889 111.111H84.4445V115.556H88.8889V111.111Z" fill="white"/>
<path d="M102.222 111.111H97.7778V115.556H102.222V111.111Z" fill="white"/>
<path d="M115.556 111.111H111.111V115.556H115.556V111.111Z" fill="white"/>
</svg>
